<svg width="120" height="120" viewBox="0 0 200 200" xmlns="http://www.w3.org/2000/svg">
  <!-- Background circle -->
  <circle cx="100" cy="100" r="95" fill="#f8f9fa" stroke="#d4af37" stroke-width="2"/>
  
  <!-- Sun rays -->
  <g stroke="#d4af37" stroke-width="2" fill="none">
    <line x1="100" y1="10" x2="100" y2="25"/>
    <line x1="130" y1="15" x2="125" y2="28"/>
    <line x1="155" y1="30" x2="145" y2="40"/>
    <line x1="170" y1="70" x2="155" y2="75"/>
    <line x1="175" y1="100" x2="160" y2="100"/>
    <line x1="170" y1="130" x2="155" y2="125"/>
    <line x1="155" y1="170" x2="145" y2="160"/>
    <line x1="130" y1="185" x2="125" y2="172"/>
    <line x1="100" y1="190" x2="100" y2="175"/>
    <line x1="70" y1="185" x2="75" y2="172"/>
    <line x1="45" y1="170" x2="55" y2="160"/>
    <line x1="30" y1="130" x2="45" y2="125"/>
    <line x1="25" y1="100" x2="40" y2="100"/>
    <line x1="30" y1="70" x2="45" y2="75"/>
    <line x1="45" y1="30" x2="55" y2="40"/>
    <line x1="70" y1="15" x2="75" y2="28"/>
  </g>
  
  <!-- Text -->
  <text x="100" y="110" text-anchor="middle" font-family="Arial, sans-serif" font-size="14" font-weight="bold" fill="#2c3e50">SİVEREK</text>
  <text x="100" y="130" text-anchor="middle" font-family="Arial, sans-serif" font-size="12" font-weight="bold" fill="#2c3e50">BELEDİYESİ</text>
  
  <!-- Decorative elements -->
  <g fill="#d4af37">
    <circle cx="85" cy="150" r="2"/>
    <circle cx="90" cy="155" r="1.5"/>
    <circle cx="95" cy="150" r="2"/>
    <circle cx="105" cy="150" r="2"/>
    <circle cx="110" cy="155" r="1.5"/>
    <circle cx="115" cy="150" r="2"/>
  </g>
</svg>